<?xml version="1.0" encoding="UTF-8" standalone="no"?>
<svg
   version="1.0"
   width="300.000000pt"
   height="300.000000pt"
   viewBox="0 0 300.000000 300.000000"
   preserveAspectRatio="xMidYMid meet"
   id="svg8"
   sodipodi:docname="safari-pinned-tab.svg"
   xml:space="preserve"
   inkscape:version="1.2.1 (9c6d41e410, 2022-07-14)"
   xmlns:inkscape="http://www.inkscape.org/namespaces/inkscape"
   xmlns:sodipodi="http://sodipodi.sourceforge.net/DTD/sodipodi-0.dtd"
   xmlns="http://www.w3.org/2000/svg"
   xmlns:svg="http://www.w3.org/2000/svg"><defs
     id="defs12" /><sodipodi:namedview
     id="namedview10"
     pagecolor="#ffffff"
     bordercolor="#666666"
     borderopacity="1.0"
     inkscape:showpageshadow="2"
     inkscape:pageopacity="0.0"
     inkscape:pagecheckerboard="0"
     inkscape:deskcolor="#d1d1d1"
     inkscape:document-units="pt"
     showgrid="false"
     inkscape:zoom="0.539375"
     inkscape:cx="574.73928"
     inkscape:cy="101.96987"
     inkscape:window-width="2560"
     inkscape:window-height="1017"
     inkscape:window-x="-8"
     inkscape:window-y="-8"
     inkscape:window-maximized="1"
     inkscape:current-layer="g6" /><metadata
     id="metadata2">
Created by potrace 1.14, written by Peter Selinger 2001-2017
</metadata><g
     transform="translate(0.000000,300.000000) scale(0.100000,-0.100000)"
     fill="#000000"
     stroke="none"
     id="g6"><g
       id="g1823"
       transform="translate(-3.76585,33.024264)"><path
         style="fill:#800080;fill-opacity:1;stroke-width:14.3801"
         d="m 914.18296,179.95953 v 93.47045 H 813.52248 712.86199 V 381.2805 489.13102 H 619.39154 525.9212 V 683.26196 877.3929 h 93.47034 93.47045 v 93.47045 93.47045 h 100.66049 100.66048 v 107.8505 107.8505 h 93.47044 93.4705 v 690.2434 690.2433 h 100.6605 100.6605 v 93.4704 93.4705 h 194.1309 194.1309 v -93.4705 -93.4704 h 107.8506 107.8505 V 2552.671 2444.8205 h 93.4704 93.4705 v -93.4705 -93.4705 h 100.6605 100.6604 v -100.6604 -100.6605 h 93.4704 93.4705 V 1668.2967 1280.0348 H 2388.14 2294.6696 V 1172.1843 1064.3338 H 2194.0092 2093.3487 V 970.86335 877.3929 h -93.4705 -93.4704 v 93.47045 93.47045 H 1798.5573 1690.7067 V 776.73241 489.13102 h -93.4704 -93.4705 V 381.2805 273.42998 H 1403.1053 1302.4449 V 179.95953 86.489072 H 1108.3139 914.18296 Z M 1906.4078,1668.2967 v 201.321 h -107.8505 -107.8506 v -201.321 -201.321 h 107.8506 107.8505 z"
         id="path918" /><path
         style="fill:#3c1065;fill-opacity:1;stroke-width:14.3801"
         d="m 914.18289,179.95953 v 93.47045 H 813.5224 712.86191 V 381.2805 489.13102 H 619.39146 525.9212 V 683.26196 877.3929 h 93.47026 93.47045 v 93.47045 93.47045 H 813.5224 914.18289 v 107.8505 107.8505 h 93.47041 93.4705 v 690.2434 690.2433 h 100.6605 100.6605 v 93.4704 93.4705 h 194.1309 194.1309 v -93.4705 -93.4704 h 107.8506 107.8505 V 2552.671 2444.8205 h 93.4704 93.4705 v -93.4705 -93.4705 h 100.6605 100.6605 v -100.6604 -100.6605 h 93.4704 93.4705 V 1668.2967 1280.0348 H 2388.14 2294.6696 V 1172.1843 1064.3338 H 2194.0091 2093.3486 V 970.86335 877.3929 h -93.4705 -93.4704 v 93.47045 93.47045 H 1798.5572 1690.7066 V 776.73241 489.13102 h -93.4704 -93.4705 V 381.2805 273.42998 H 1403.1052 1302.4448 V 179.95953 86.489072 H 1108.3138 914.18289 Z M 1302.4448,381.2805 v 107.85052 h 100.6604 100.6605 v 884.37428 884.3742 h 93.4705 93.4704 v -100.6604 -100.6605 h 107.8506 107.8505 v -93.4705 -93.4704 h -107.8505 -107.8506 v -201.321 -201.321 h 107.8506 107.8505 v -201.3209 -201.321 h 93.4704 93.4705 v 107.8505 107.8505 h 100.6605 100.6605 v 388.2619 388.2619 h -100.6605 -100.6605 v 100.6605 100.6604 h -93.4705 -93.4704 v 93.4705 93.4705 h -107.8505 -107.8506 v 107.8505 107.8505 H 1496.5757 1302.4448 V 1862.4276 1064.3338 H 1108.3138 914.18289 V 970.86335 877.3929 H 813.5224 712.86191 V 683.26196 489.13102 H 813.5224 914.18289 V 381.2805 273.42998 h 194.13091 194.131 z m 603.9629,1287.0162 v 201.321 h 93.4704 93.4705 v -201.321 -201.321 h -93.4705 -93.4704 z"
         id="path920" /></g></g></svg>
